<?xml version="1.0" encoding="UTF-8" standalone="no"?>
<!-- Created with Inkscape (http://www.inkscape.org/) -->

<svg
   xmlns:dc="http://purl.org/dc/elements/1.1/"
   xmlns:cc="http://creativecommons.org/ns#"
   xmlns:rdf="http://www.w3.org/1999/02/22-rdf-syntax-ns#"
   xmlns:svg="http://www.w3.org/2000/svg"
   xmlns="http://www.w3.org/2000/svg"
   xmlns:sodipodi="http://sodipodi.sourceforge.net/DTD/sodipodi-0.dtd"
   xmlns:inkscape="http://www.inkscape.org/namespaces/inkscape"
   width="300"
   height="146"
   viewBox="0 0 300 146"
   id="svg2"
   version="1.1"
   inkscape:version="0.91 r13725"
   sodipodi:docname="soucoupe.svg">
  <defs
     id="defs4" />
  <sodipodi:namedview
     id="base"
     pagecolor="#ffffff"
     bordercolor="#666666"
     borderopacity="1.0"
     inkscape:pageopacity="0.0"
     inkscape:pageshadow="2"
     inkscape:zoom="1.4"
     inkscape:cx="241.97928"
     inkscape:cy="153.58823"
     inkscape:document-units="px"
     inkscape:current-layer="layer1"
     showgrid="false"
     units="px"
     inkscape:window-width="1920"
     inkscape:window-height="1017"
     inkscape:window-x="-8"
     inkscape:window-y="-8"
     inkscape:window-maximized="1" />
  <metadata
     id="metadata7">
    <rdf:RDF>
      <cc:Work
         rdf:about="">
        <dc:format>image/svg+xml</dc:format>
        <dc:type
           rdf:resource="http://purl.org/dc/dcmitype/StillImage" />
        <dc:title></dc:title>
      </cc:Work>
    </rdf:RDF>
  </metadata>
  <g
     inkscape:label="Calque 1"
     inkscape:groupmode="layer"
     id="layer1"
     transform="translate(0,-906.36216)">
    <g
       transform="matrix(1.3428947,0,0,-1.3428947,-387.15762,1834.712)"
       id="g12914">
      <path
         d="m 451.9149,668.8522 c -1.399,-1.399 -3.64,-1.426 -5.006,-0.06 -1.365,1.366 -1.339,3.607 0.06,5.006 1.399,1.399 3.641,1.426 5.006,0.06 1.366,-1.366 1.339,-3.607 -0.06,-5.006"
         style="fill:#ff1b4c;fill-opacity:1;fill-rule:nonzero;stroke:none"
         id="path4340"
         inkscape:connector-curvature="0" />
      <path
         d="m 350.9894,669.2715 0.811,0.811 0.811,0.811 17.447,-15.619 -1.666,-1.667 -1.666,-1.666 -15.737,17.33 z"
         style="fill:#b1cfde;fill-opacity:1;fill-rule:nonzero;stroke:none"
         id="path4344"
         inkscape:connector-curvature="0" />
      <path
         d="m 348.085,668.8522 c 1.399,-1.399 3.64,-1.426 5.006,-0.06 1.365,1.366 1.339,3.607 -0.06,5.006 -1.399,1.399 -3.64,1.426 -5.006,0.06 -1.366,-1.366 -1.339,-3.607 0.06,-5.006"
         style="fill:#ff1b4c;fill-opacity:1;fill-rule:nonzero;stroke:none"
         id="path4348"
         inkscape:connector-curvature="0" />
      <path
         d="m 428.1851,662.809 c 0,-15.566 -12.619,-28.957 -28.185,-28.957 -15.566,0 -28.185,13.391 -28.185,28.957 0,15.566 12.619,28.185 28.185,28.185 15.566,0 28.185,-12.619 28.185,-28.185"
         style="fill:#ceeaf7;fill-opacity:1;fill-rule:nonzero;stroke:none"
         id="path4352"
         inkscape:connector-curvature="0" />
      <path
         inkscape:connector-curvature="0"
         id="path4368"
         style="fill:#ffffff;fill-opacity:1;fill-rule:nonzero;stroke:none"
         d="m 374.3583,674.5068 c 1.773,-0.351 3.607,-0.535 5.483,-0.535 11.391,0 21.193,6.761 25.636,16.486 -1.772,0.349 -3.603,0.536 -5.477,0.536 -11.392,0 -21.198,-6.762 -25.642,-16.487" />
      <path
         d="m 396.6514,678.0584 c 0,-3.108 -2.52,-5.628 -5.628,-5.628 -3.108,0 -5.627,2.52 -5.627,5.628 0,3.108 2.519,5.628 5.627,5.628 3.108,0 5.628,-2.52 5.628,-5.628"
         style="fill:#ffffff;fill-opacity:1;fill-rule:nonzero;stroke:none"
         id="path4372"
         inkscape:connector-curvature="0" />
      <path
         d="m 429.107,666.9149 -58.214,0 c -2.576,0 -4.664,-2.088 -4.664,-4.664 l 0,-8.747 67.542,0 0,8.747 c 0,2.576 -2.088,4.664 -4.664,4.664"
         style="fill:#ff1b4c;fill-opacity:1;fill-rule:nonzero;stroke:none"
         id="path4376"
         inkscape:connector-curvature="0" />
      <path
         d="m 433.7275,661.2739 -67.455,0 c -2.985,0 -5.404,-2.42 -5.404,-5.404 l 0,-10.907 78.263,0 0,10.907 c 0,2.984 -2.419,5.404 -5.404,5.404"
         style="fill:#4791b5;fill-opacity:1;fill-rule:nonzero;stroke:none"
         id="path4380"
         inkscape:connector-curvature="0" />
      <path
         d="m 440.3483,610.2657 c 0,-15.116 -18.065,-27.37 -40.348,-27.37 -22.284,0 -40.349,12.254 -40.349,27.37 0,15.116 18.065,27.37 40.349,27.37 22.283,0 40.348,-12.254 40.348,-27.37"
         style="fill:#ffcc54;fill-opacity:1;fill-rule:nonzero;stroke:none"
         id="path4384"
         inkscape:connector-curvature="0" />
      <path
         d="m 366.4158,592.6642 67.168,0 c 2.972,0 5.381,2.409 5.381,5.381 l 0,10.093 -77.93,0 0,-10.093 c 0,-2.972 2.409,-5.381 5.381,-5.381"
         style="fill:#4791b5;fill-opacity:1;fill-rule:nonzero;stroke:none"
         id="path4388"
         inkscape:connector-curvature="0" />
      <path
         d="m 400,600.377 c 16.447,0 -2.339,0 0,0 0,0 -0.685,0 0,0 2.338,0 -16.447,0 0,0 64.581,0 103.473,26.181 103.473,26.181 l -102.987,0 -0.972,0 -102.987,0 c 0,0 38.892,-26.181 103.473,-26.181"
         style="fill:#b1cfde;fill-opacity:1;fill-rule:nonzero;stroke:none"
         id="path4392"
         inkscape:connector-curvature="0" />
      <path
         inkscape:connector-curvature="0"
         id="path4408"
         style="fill:#95bacc;fill-opacity:1;fill-rule:nonzero;stroke:none"
         d="m 400,600.377 c 11.206,0 -1.593,0 0,0 0,0 -0.467,0 0,0 1.593,0 -11.207,0 0,0 44.003,0 70.503,26.181 70.503,26.181 l -70.172,0 -0.662,0 -70.172,0 c 0,0 26.5,-26.181 70.503,-26.181" />
      <path
         d="m 400,600.3771 c 4.368,0 -0.621,0 0,0 0,0 -0.182,0 0,0 0.621,0 -4.368,0 0,0 17.15,0 27.478,26.181 27.478,26.181 l -27.349,0 -0.258,0 -27.349,0 c 0,0 10.328,-26.181 27.478,-26.181"
         style="fill:#b1cfde;fill-opacity:1;fill-rule:nonzero;stroke:none"
         id="path4412"
         inkscape:connector-curvature="0" />
      <path
         d="m 427.2656,655.831 -26.762,0 -1.008,0 -26.761,0 c -66.974,0 -80.042,-26.953 -80.042,-26.953 l 106.803,0 1.008,0 106.804,0 c 0,0 -13.068,26.953 -80.042,26.953"
         style="fill:#b1cfde;fill-opacity:1;fill-rule:nonzero;stroke:none"
         id="path4416"
         inkscape:connector-curvature="0" />
      <path
         inkscape:connector-curvature="0"
         id="path4432"
         style="fill:#95bacc;fill-opacity:1;fill-rule:nonzero;stroke:none"
         d="m 418.2112,655.831 -17.874,0 -0.674,0 -17.874,0 c -44.734,0 -53.462,-26.953 -53.462,-26.953 l 71.336,0 0.674,0 71.336,0 c 0,0 -8.729,26.953 -53.462,26.953" />
      <path
         d="m 406.0174,654.9854 -5.906,0 -0.223,0 -5.906,0 c -14.781,0 -17.665,-26.953 -17.665,-26.953 l 23.571,0 0.223,0 23.571,0 c 0,0 -2.884,26.953 -17.665,26.953"
         style="fill:#b1cfde;fill-opacity:1;fill-rule:nonzero;stroke:none"
         id="path4436"
         inkscape:connector-curvature="0" />
      <path
         d="m 506.7797,632.8369 c 0,-3.221 -2.611,-5.832 -5.832,-5.832 l -201.896,0 c -3.22,0 -5.831,2.611 -5.831,5.832 0,3.221 2.611,5.832 5.831,5.832 l 201.896,0 c 3.221,0 5.832,-2.611 5.832,-5.832"
         style="fill:#4791b5;fill-opacity:1;fill-rule:nonzero;stroke:none"
         id="path4440"
         inkscape:connector-curvature="0" />
      <path
         d="m 506.7797,622.5996 c 0,-3.221 -2.611,-5.832 -5.832,-5.832 l -201.896,0 c -3.22,0 -5.831,2.611 -5.831,5.832 0,3.221 2.611,5.832 5.831,5.832 l 201.896,0 c 3.221,0 5.832,-2.611 5.832,-5.832"
         style="fill:#4791b5;fill-opacity:1;fill-rule:nonzero;stroke:none"
         id="path4444"
         inkscape:connector-curvature="0" />
      <path
         d="m 511.6988,627.7182 c 0,-3.369 -2.731,-6.1 -6.1,-6.1 l -211.197,0 c -3.369,0 -6.101,2.731 -6.101,6.1 0,3.369 2.732,6.1 6.101,6.1 l 211.197,0 c 3.369,0 6.1,-2.731 6.1,-6.1"
         style="fill:#ff1b4c;fill-opacity:1;fill-rule:nonzero;stroke:none"
         id="path4448"
         inkscape:connector-curvature="0" />
      <path
         d="m 299.3677,627.7182 c 0,-1.82 -1.475,-3.294 -3.295,-3.294 -1.819,0 -3.294,1.474 -3.294,3.294 0,1.82 1.475,3.295 3.294,3.295 1.82,0 3.295,-1.475 3.295,-3.295"
         style="fill:#ffd061;fill-opacity:1;fill-rule:nonzero;stroke:none"
         id="path4452"
         inkscape:connector-curvature="0" />
      <path
         d="m 296.9106,628.4558 c 0,-0.822 -0.666,-1.488 -1.488,-1.488 -0.822,0 -1.488,0.666 -1.488,1.488 0,0.822 0.666,1.488 1.488,1.488 0.822,0 1.488,-0.666 1.488,-1.488"
         style="fill:#ffffff;fill-opacity:1;fill-rule:nonzero;stroke:none"
         id="path4456"
         inkscape:connector-curvature="0" />
      <path
         d="m 315.3739,627.7182 c 0,-1.82 -1.475,-3.294 -3.295,-3.294 -1.819,0 -3.294,1.474 -3.294,3.294 0,1.82 1.475,3.295 3.294,3.295 1.82,0 3.295,-1.475 3.295,-3.295"
         style="fill:#ffd061;fill-opacity:1;fill-rule:nonzero;stroke:none"
         id="path4460"
         inkscape:connector-curvature="0" />
      <path
         d="m 312.9168,628.4558 c 0,-0.822 -0.666,-1.488 -1.488,-1.488 -0.822,0 -1.488,0.666 -1.488,1.488 0,0.822 0.666,1.488 1.488,1.488 0.822,0 1.488,-0.666 1.488,-1.488"
         style="fill:#ffffff;fill-opacity:1;fill-rule:nonzero;stroke:none"
         id="path4464"
         inkscape:connector-curvature="0" />
      <path
         d="m 331.38,627.7182 c 0,-1.82 -1.475,-3.294 -3.295,-3.294 -1.819,0 -3.294,1.474 -3.294,3.294 0,1.82 1.475,3.295 3.294,3.295 1.82,0 3.295,-1.475 3.295,-3.295"
         style="fill:#ffd061;fill-opacity:1;fill-rule:nonzero;stroke:none"
         id="path4468"
         inkscape:connector-curvature="0" />
      <path
         d="m 328.9228,628.4558 c 0,-0.822 -0.666,-1.488 -1.488,-1.488 -0.822,0 -1.488,0.666 -1.488,1.488 0,0.822 0.666,1.488 1.488,1.488 0.822,0 1.488,-0.666 1.488,-1.488"
         style="fill:#ffffff;fill-opacity:1;fill-rule:nonzero;stroke:none"
         id="path4472"
         inkscape:connector-curvature="0" />
      <path
         d="m 347.3861,627.7182 c 0,-1.82 -1.475,-3.294 -3.294,-3.294 -1.82,0 -3.295,1.474 -3.295,3.294 0,1.82 1.475,3.295 3.295,3.295 1.819,0 3.294,-1.475 3.294,-3.295"
         style="fill:#ffd061;fill-opacity:1;fill-rule:nonzero;stroke:none"
         id="path4476"
         inkscape:connector-curvature="0" />
      <path
         d="m 344.929,628.4558 c 0,-0.822 -0.666,-1.488 -1.488,-1.488 -0.822,0 -1.488,0.666 -1.488,1.488 0,0.822 0.666,1.488 1.488,1.488 0.822,0 1.488,-0.666 1.488,-1.488"
         style="fill:#ffffff;fill-opacity:1;fill-rule:nonzero;stroke:none"
         id="path4480"
         inkscape:connector-curvature="0" />
      <path
         d="m 363.3922,627.7182 c 0,-1.82 -1.475,-3.294 -3.295,-3.294 -1.819,0 -3.294,1.474 -3.294,3.294 0,1.82 1.475,3.295 3.294,3.295 1.82,0 3.295,-1.475 3.295,-3.295"
         style="fill:#ffd061;fill-opacity:1;fill-rule:nonzero;stroke:none"
         id="path4484"
         inkscape:connector-curvature="0" />
      <path
         d="m 360.9351,628.4558 c 0,-0.822 -0.666,-1.488 -1.488,-1.488 -0.822,0 -1.488,0.666 -1.488,1.488 0,0.822 0.666,1.488 1.488,1.488 0.822,0 1.488,-0.666 1.488,-1.488"
         style="fill:#ffffff;fill-opacity:1;fill-rule:nonzero;stroke:none"
         id="path4488"
         inkscape:connector-curvature="0" />
      <path
         d="m 379.3984,627.7182 c 0,-1.82 -1.475,-3.294 -3.295,-3.294 -1.819,0 -3.294,1.474 -3.294,3.294 0,1.82 1.475,3.295 3.294,3.295 1.82,0 3.295,-1.475 3.295,-3.295"
         style="fill:#ffd061;fill-opacity:1;fill-rule:nonzero;stroke:none"
         id="path4492"
         inkscape:connector-curvature="0" />
      <path
         d="m 376.9412,628.4558 c 0,-0.822 -0.666,-1.488 -1.488,-1.488 -0.822,0 -1.488,0.666 -1.488,1.488 0,0.822 0.666,1.488 1.488,1.488 0.822,0 1.488,-0.666 1.488,-1.488"
         style="fill:#ffffff;fill-opacity:1;fill-rule:nonzero;stroke:none"
         id="path4496"
         inkscape:connector-curvature="0" />
      <path
         d="m 395.4044,627.7182 c 0,-1.82 -1.475,-3.294 -3.294,-3.294 -1.82,0 -3.295,1.474 -3.295,3.294 0,1.82 1.475,3.295 3.295,3.295 1.819,0 3.294,-1.475 3.294,-3.295"
         style="fill:#ffd061;fill-opacity:1;fill-rule:nonzero;stroke:none"
         id="path4500"
         inkscape:connector-curvature="0" />
      <path
         d="m 392.9473,628.4558 c 0,-0.822 -0.666,-1.488 -1.488,-1.488 -0.822,0 -1.488,0.666 -1.488,1.488 0,0.822 0.666,1.488 1.488,1.488 0.822,0 1.488,-0.666 1.488,-1.488"
         style="fill:#ffffff;fill-opacity:1;fill-rule:nonzero;stroke:none"
         id="path4504"
         inkscape:connector-curvature="0" />
      <path
         d="m 411.4106,627.7182 c 0,-1.82 -1.475,-3.294 -3.295,-3.294 -1.819,0 -3.294,1.474 -3.294,3.294 0,1.82 1.475,3.295 3.294,3.295 1.82,0 3.295,-1.475 3.295,-3.295"
         style="fill:#ffd061;fill-opacity:1;fill-rule:nonzero;stroke:none"
         id="path4508"
         inkscape:connector-curvature="0" />
      <path
         d="m 408.9535,628.4558 c 0,-0.822 -0.666,-1.488 -1.488,-1.488 -0.822,0 -1.488,0.666 -1.488,1.488 0,0.822 0.666,1.488 1.488,1.488 0.822,0 1.488,-0.666 1.488,-1.488"
         style="fill:#ffffff;fill-opacity:1;fill-rule:nonzero;stroke:none"
         id="path4512"
         inkscape:connector-curvature="0" />
      <path
         d="m 427.4167,627.7182 c 0,-1.82 -1.475,-3.294 -3.294,-3.294 -1.82,0 -3.295,1.474 -3.295,3.294 0,1.82 1.475,3.295 3.295,3.295 1.819,0 3.294,-1.475 3.294,-3.295"
         style="fill:#ffd061;fill-opacity:1;fill-rule:nonzero;stroke:none"
         id="path4516"
         inkscape:connector-curvature="0" />
      <path
         d="m 424.9595,628.4558 c 0,-0.822 -0.666,-1.488 -1.488,-1.488 -0.822,0 -1.488,0.666 -1.488,1.488 0,0.822 0.666,1.488 1.488,1.488 0.822,0 1.488,-0.666 1.488,-1.488"
         style="fill:#ffffff;fill-opacity:1;fill-rule:nonzero;stroke:none"
         id="path4520"
         inkscape:connector-curvature="0" />
      <path
         d="m 443.4228,627.7182 c 0,-1.82 -1.475,-3.294 -3.294,-3.294 -1.82,0 -3.295,1.474 -3.295,3.294 0,1.82 1.475,3.295 3.295,3.295 1.819,0 3.294,-1.475 3.294,-3.295"
         style="fill:#ffd061;fill-opacity:1;fill-rule:nonzero;stroke:none"
         id="path4524"
         inkscape:connector-curvature="0" />
      <path
         d="m 440.9657,628.4558 c 0,-0.822 -0.666,-1.488 -1.488,-1.488 -0.822,0 -1.488,0.666 -1.488,1.488 0,0.822 0.666,1.488 1.488,1.488 0.822,0 1.488,-0.666 1.488,-1.488"
         style="fill:#ffffff;fill-opacity:1;fill-rule:nonzero;stroke:none"
         id="path4528"
         inkscape:connector-curvature="0" />
      <path
         d="m 459.4289,627.7182 c 0,-1.82 -1.475,-3.294 -3.294,-3.294 -1.82,0 -3.295,1.474 -3.295,3.294 0,1.82 1.475,3.295 3.295,3.295 1.819,0 3.294,-1.475 3.294,-3.295"
         style="fill:#ffd061;fill-opacity:1;fill-rule:nonzero;stroke:none"
         id="path4532"
         inkscape:connector-curvature="0" />
      <path
         d="m 456.9718,628.4558 c 0,-0.822 -0.666,-1.488 -1.488,-1.488 -0.822,0 -1.488,0.666 -1.488,1.488 0,0.822 0.666,1.488 1.488,1.488 0.822,0 1.488,-0.666 1.488,-1.488"
         style="fill:#ffffff;fill-opacity:1;fill-rule:nonzero;stroke:none"
         id="path4536"
         inkscape:connector-curvature="0" />
      <path
         d="m 475.4351,627.7182 c 0,-1.82 -1.475,-3.294 -3.295,-3.294 -1.819,0 -3.294,1.474 -3.294,3.294 0,1.82 1.475,3.295 3.294,3.295 1.82,0 3.295,-1.475 3.295,-3.295"
         style="fill:#ffd061;fill-opacity:1;fill-rule:nonzero;stroke:none"
         id="path4540"
         inkscape:connector-curvature="0" />
      <path
         d="m 472.9779,628.4558 c 0,-0.822 -0.666,-1.488 -1.488,-1.488 -0.822,0 -1.488,0.666 -1.488,1.488 0,0.822 0.666,1.488 1.488,1.488 0.822,0 1.488,-0.666 1.488,-1.488"
         style="fill:#ffffff;fill-opacity:1;fill-rule:nonzero;stroke:none"
         id="path4544"
         inkscape:connector-curvature="0" />
      <path
         d="m 491.4411,627.7182 c 0,-1.82 -1.475,-3.294 -3.295,-3.294 -1.819,0 -3.294,1.474 -3.294,3.294 0,1.82 1.475,3.295 3.294,3.295 1.82,0 3.295,-1.475 3.295,-3.295"
         style="fill:#ffd061;fill-opacity:1;fill-rule:nonzero;stroke:none"
         id="path4548"
         inkscape:connector-curvature="0" />
      <path
         d="m 488.984,628.4558 c 0,-0.822 -0.666,-1.488 -1.488,-1.488 -0.822,0 -1.488,0.666 -1.488,1.488 0,0.822 0.666,1.488 1.488,1.488 0.822,0 1.488,-0.666 1.488,-1.488"
         style="fill:#ffffff;fill-opacity:1;fill-rule:nonzero;stroke:none"
         id="path4552"
         inkscape:connector-curvature="0" />
      <path
         d="m 507.4473,627.7182 c 0,-1.82 -1.475,-3.294 -3.295,-3.294 -1.819,0 -3.294,1.474 -3.294,3.294 0,1.82 1.475,3.295 3.294,3.295 1.82,0 3.295,-1.475 3.295,-3.295"
         style="fill:#ffd061;fill-opacity:1;fill-rule:nonzero;stroke:none"
         id="path4556"
         inkscape:connector-curvature="0" />
      <path
         d="m 504.9902,628.4558 c 0,-0.822 -0.666,-1.488 -1.488,-1.488 -0.822,0 -1.488,0.666 -1.488,1.488 0,0.822 0.666,1.488 1.488,1.488 0.822,0 1.488,-0.666 1.488,-1.488"
         style="fill:#ffffff;fill-opacity:1;fill-rule:nonzero;stroke:none"
         id="path4560"
         inkscape:connector-curvature="0" />
    </g>
  </g>
</svg>
